<mxfile host="65bd71144e">
    <diagram id="g_yDW3rRavWZX5EVKzkY" name="Page-1">
        <mxGraphModel dx="1673" dy="2053" grid="1" gridSize="10" guides="1" tooltips="1" connect="1" arrows="1" fold="1" page="1" pageScale="1" pageWidth="850" pageHeight="1100" math="0" shadow="0">
            <root>
                <mxCell id="0"/>
                <mxCell id="1" parent="0"/>
                <mxCell id="30" style="edgeStyle=none;html=1;entryX=0.408;entryY=0;entryDx=0;entryDy=0;entryPerimeter=0;" edge="1" parent="1" source="2" target="29">
                    <mxGeometry relative="1" as="geometry"/>
                </mxCell>
                <mxCell id="2" value="Module" style="rounded=0;whiteSpace=wrap;html=1;fillColor=#f8cecc;strokeColor=#b85450;" vertex="1" parent="1">
                    <mxGeometry x="365" y="140" width="120" height="60" as="geometry"/>
                </mxCell>
                <mxCell id="7" style="edgeStyle=none;html=1;entryX=0.433;entryY=1.05;entryDx=0;entryDy=0;entryPerimeter=0;" edge="1" parent="1" source="3" target="2">
                    <mxGeometry relative="1" as="geometry"/>
                </mxCell>
                <mxCell id="12" value="" style="edgeStyle=none;html=1;" edge="1" parent="1" source="3" target="11">
                    <mxGeometry relative="1" as="geometry"/>
                </mxCell>
                <mxCell id="14" style="edgeStyle=none;html=1;" edge="1" parent="1" source="3" target="13">
                    <mxGeometry relative="1" as="geometry"/>
                </mxCell>
                <mxCell id="3" value="Import" style="rounded=0;whiteSpace=wrap;html=1;fillColor=#e1d5e7;strokeColor=#9673a6;" vertex="1" parent="1">
                    <mxGeometry x="110" y="280" width="120" height="60" as="geometry"/>
                </mxCell>
                <mxCell id="8" style="edgeStyle=none;html=1;entryX=0.5;entryY=1;entryDx=0;entryDy=0;" edge="1" parent="1" source="4" target="2">
                    <mxGeometry relative="1" as="geometry"/>
                </mxCell>
                <mxCell id="16" style="edgeStyle=none;html=1;entryX=0.5;entryY=0;entryDx=0;entryDy=0;" edge="1" parent="1" source="4" target="15">
                    <mxGeometry relative="1" as="geometry"/>
                </mxCell>
                <mxCell id="19" style="edgeStyle=none;html=1;entryX=0.417;entryY=0;entryDx=0;entryDy=0;entryPerimeter=0;" edge="1" parent="1" source="4" target="17">
                    <mxGeometry relative="1" as="geometry"/>
                </mxCell>
                <mxCell id="20" style="edgeStyle=none;html=1;entryX=0.5;entryY=0;entryDx=0;entryDy=0;" edge="1" parent="1" source="4" target="18">
                    <mxGeometry relative="1" as="geometry"/>
                </mxCell>
                <mxCell id="4" value="Providers" style="rounded=0;whiteSpace=wrap;html=1;fillColor=#f8cecc;strokeColor=#b85450;" vertex="1" parent="1">
                    <mxGeometry x="290" y="280" width="120" height="60" as="geometry"/>
                </mxCell>
                <mxCell id="10" style="edgeStyle=none;html=1;entryX=0.75;entryY=1;entryDx=0;entryDy=0;" edge="1" parent="1" source="5" target="2">
                    <mxGeometry relative="1" as="geometry"/>
                </mxCell>
                <mxCell id="5" value="Exports" style="rounded=0;whiteSpace=wrap;html=1;" vertex="1" parent="1">
                    <mxGeometry x="610" y="280" width="120" height="60" as="geometry"/>
                </mxCell>
                <mxCell id="9" style="edgeStyle=none;html=1;entryX=0.5;entryY=1;entryDx=0;entryDy=0;" edge="1" parent="1" source="6" target="2">
                    <mxGeometry relative="1" as="geometry"/>
                </mxCell>
                <mxCell id="6" value="Controller" style="rounded=0;whiteSpace=wrap;html=1;" vertex="1" parent="1">
                    <mxGeometry x="460" y="280" width="120" height="60" as="geometry"/>
                </mxCell>
                <mxCell id="11" value="Module 1" style="rounded=0;whiteSpace=wrap;html=1;fillColor=#ffe6cc;strokeColor=#d79b00;" vertex="1" parent="1">
                    <mxGeometry x="20" y="430" width="120" height="60" as="geometry"/>
                </mxCell>
                <mxCell id="13" value="Module 2" style="rounded=0;whiteSpace=wrap;html=1;fillColor=#fff2cc;strokeColor=#d6b656;" vertex="1" parent="1">
                    <mxGeometry x="170" y="430" width="120" height="60" as="geometry"/>
                </mxCell>
                <mxCell id="15" value="Service A" style="rounded=0;whiteSpace=wrap;html=1;fillColor=#d5e8d4;strokeColor=#82b366;" vertex="1" parent="1">
                    <mxGeometry x="360" y="430" width="120" height="60" as="geometry"/>
                </mxCell>
                <mxCell id="17" value="Repoisitory" style="rounded=0;whiteSpace=wrap;html=1;" vertex="1" parent="1">
                    <mxGeometry x="500" y="430" width="120" height="60" as="geometry"/>
                </mxCell>
                <mxCell id="18" value="Factory" style="rounded=0;whiteSpace=wrap;html=1;" vertex="1" parent="1">
                    <mxGeometry x="290" y="540" width="120" height="60" as="geometry"/>
                </mxCell>
                <mxCell id="22" style="edgeStyle=none;html=1;" edge="1" parent="1" source="21" target="15">
                    <mxGeometry relative="1" as="geometry"/>
                </mxCell>
                <mxCell id="28" style="edgeStyle=none;html=1;entryX=0;entryY=1;entryDx=0;entryDy=0;" edge="1" parent="1" source="21" target="26">
                    <mxGeometry relative="1" as="geometry"/>
                </mxCell>
                <mxCell id="33" style="edgeStyle=none;html=1;entryX=0.667;entryY=1.017;entryDx=0;entryDy=0;entryPerimeter=0;" edge="1" parent="1" source="21" target="5">
                    <mxGeometry relative="1" as="geometry"/>
                </mxCell>
                <mxCell id="21" value="HieuPC" style="rounded=0;whiteSpace=wrap;html=1;fillColor=#dae8fc;strokeColor=#6c8ebf;" vertex="1" parent="1">
                    <mxGeometry x="630" y="600" width="120" height="60" as="geometry"/>
                </mxCell>
                <mxCell id="25" style="edgeStyle=none;html=1;entryX=0.5;entryY=0;entryDx=0;entryDy=0;" edge="1" parent="1" source="23" target="24">
                    <mxGeometry relative="1" as="geometry"/>
                </mxCell>
                <mxCell id="23" value="Module Khac" style="rounded=0;whiteSpace=wrap;html=1;" vertex="1" parent="1">
                    <mxGeometry x="940" y="160" width="120" height="60" as="geometry"/>
                </mxCell>
                <mxCell id="27" value="" style="edgeStyle=none;html=1;" edge="1" parent="1" source="24" target="26">
                    <mxGeometry relative="1" as="geometry"/>
                </mxCell>
                <mxCell id="24" value="Providers" style="rounded=0;whiteSpace=wrap;html=1;" vertex="1" parent="1">
                    <mxGeometry x="940" y="290" width="120" height="60" as="geometry"/>
                </mxCell>
                <mxCell id="26" value="Service C" style="rounded=0;whiteSpace=wrap;html=1;" vertex="1" parent="1">
                    <mxGeometry x="940" y="430" width="120" height="60" as="geometry"/>
                </mxCell>
                <mxCell id="31" style="edgeStyle=none;html=1;entryX=0.25;entryY=1;entryDx=0;entryDy=0;" edge="1" parent="1" source="29" target="23">
                    <mxGeometry relative="1" as="geometry"/>
                </mxCell>
                <mxCell id="29" value="Imports" style="rounded=0;whiteSpace=wrap;html=1;" vertex="1" parent="1">
                    <mxGeometry x="800" y="290" width="120" height="60" as="geometry"/>
                </mxCell>
                <mxCell id="36" value="" style="edgeStyle=none;html=1;" edge="1" parent="1" source="34" target="35">
                    <mxGeometry relative="1" as="geometry"/>
                </mxCell>
                <mxCell id="46" value="" style="edgeStyle=none;html=1;" edge="1" parent="1" source="34" target="45">
                    <mxGeometry relative="1" as="geometry"/>
                </mxCell>
                <mxCell id="48" value="" style="edgeStyle=none;html=1;" edge="1" parent="1" source="34" target="47">
                    <mxGeometry relative="1" as="geometry"/>
                </mxCell>
                <mxCell id="50" style="edgeStyle=none;html=1;entryX=0;entryY=0.5;entryDx=0;entryDy=0;" edge="1" parent="1" source="34" target="49">
                    <mxGeometry relative="1" as="geometry"/>
                </mxCell>
                <mxCell id="56" value="" style="edgeStyle=none;html=1;" edge="1" parent="1" source="34" target="55">
                    <mxGeometry relative="1" as="geometry"/>
                </mxCell>
                <mxCell id="34" value="Service" style="rounded=0;whiteSpace=wrap;html=1;" vertex="1" parent="1">
                    <mxGeometry x="380" y="750" width="120" height="60" as="geometry"/>
                </mxCell>
                <mxCell id="39" value="" style="edgeStyle=none;html=1;" edge="1" parent="1" source="35" target="38">
                    <mxGeometry relative="1" as="geometry"/>
                </mxCell>
                <mxCell id="41" value="" style="edgeStyle=none;html=1;" edge="1" parent="1" source="35" target="40">
                    <mxGeometry relative="1" as="geometry"/>
                </mxCell>
                <mxCell id="42" value="" style="edgeStyle=none;html=1;" edge="1" parent="1" source="35" target="40">
                    <mxGeometry relative="1" as="geometry"/>
                </mxCell>
                <mxCell id="44" style="edgeStyle=none;html=1;entryX=0.5;entryY=0;entryDx=0;entryDy=0;" edge="1" parent="1" source="35" target="43">
                    <mxGeometry relative="1" as="geometry"/>
                </mxCell>
                <mxCell id="35" value="Scope" style="rounded=0;whiteSpace=wrap;html=1;" vertex="1" parent="1">
                    <mxGeometry x="380" y="840" width="120" height="60" as="geometry"/>
                </mxCell>
                <mxCell id="38" value="DEFAULT" style="rounded=0;whiteSpace=wrap;html=1;" vertex="1" parent="1">
                    <mxGeometry x="200" y="970" width="120" height="60" as="geometry"/>
                </mxCell>
                <mxCell id="40" value="REQUEST" style="rounded=0;whiteSpace=wrap;html=1;" vertex="1" parent="1">
                    <mxGeometry x="380" y="970" width="120" height="60" as="geometry"/>
                </mxCell>
                <mxCell id="43" value="&lt;div style=&quot;color: rgb(204, 204, 204); background-color: rgb(31, 31, 31); font-family: Menlo, Monaco, &amp;quot;Courier New&amp;quot;, monospace; font-weight: normal; font-size: 12px; line-height: 18px;&quot;&gt;&lt;span style=&quot;color: rgb(40, 118, 210); font-family: Inconsolata, Consolas, &amp;quot;Courier New&amp;quot;, monospace; font-size: 15px; text-align: start; background-color: rgb(240, 242, 243);&quot;&gt;TRANSIENT&lt;/span&gt;&lt;br&gt;&lt;/div&gt;" style="rounded=0;whiteSpace=wrap;html=1;" vertex="1" parent="1">
                    <mxGeometry x="510" y="990" width="120" height="60" as="geometry"/>
                </mxCell>
                <mxCell id="52" value="" style="edgeStyle=none;html=1;" edge="1" parent="1" source="45" target="51">
                    <mxGeometry relative="1" as="geometry"/>
                </mxCell>
                <mxCell id="45" value="Instance" style="rounded=0;whiteSpace=wrap;html=1;" vertex="1" parent="1">
                    <mxGeometry x="620" y="700" width="120" height="60" as="geometry"/>
                </mxCell>
                <mxCell id="47" value="useValue" style="rounded=0;whiteSpace=wrap;html=1;" vertex="1" parent="1">
                    <mxGeometry x="620" y="770" width="120" height="60" as="geometry"/>
                </mxCell>
                <mxCell id="54" value="" style="edgeStyle=none;html=1;" edge="1" parent="1" source="49" target="53">
                    <mxGeometry relative="1" as="geometry"/>
                </mxCell>
                <mxCell id="49" value="useClass" style="rounded=0;whiteSpace=wrap;html=1;" vertex="1" parent="1">
                    <mxGeometry x="620" y="840" width="120" height="60" as="geometry"/>
                </mxCell>
                <mxCell id="51" value="HieuPC" style="rounded=0;whiteSpace=wrap;html=1;" vertex="1" parent="1">
                    <mxGeometry x="820" y="700" width="120" height="60" as="geometry"/>
                </mxCell>
                <mxCell id="53" value="HieuPCCoManHInh" style="rounded=0;whiteSpace=wrap;html=1;" vertex="1" parent="1">
                    <mxGeometry x="820" y="840" width="120" height="60" as="geometry"/>
                </mxCell>
                <mxCell id="57" style="edgeStyle=none;html=1;entryX=0;entryY=0.5;entryDx=0;entryDy=0;" edge="1" parent="1" source="55" target="58">
                    <mxGeometry relative="1" as="geometry">
                        <mxPoint x="810" y="950" as="targetPoint"/>
                    </mxGeometry>
                </mxCell>
                <mxCell id="55" value="useFactory" style="rounded=0;whiteSpace=wrap;html=1;" vertex="1" parent="1">
                    <mxGeometry x="620" y="920" width="120" height="60" as="geometry"/>
                </mxCell>
                <mxCell id="58" value="HieuPC" style="rounded=0;whiteSpace=wrap;html=1;" vertex="1" parent="1">
                    <mxGeometry x="820" y="920" width="120" height="60" as="geometry"/>
                </mxCell>
            </root>
        </mxGraphModel>
    </diagram>
    <diagram id="eAmgK3tEibXiktviUCcR" name="Page-2">
        <mxGraphModel dx="1115" dy="1368" grid="1" gridSize="10" guides="1" tooltips="1" connect="1" arrows="1" fold="1" page="1" pageScale="1" pageWidth="850" pageHeight="1100" math="0" shadow="0">
            <root>
                <mxCell id="0"/>
                <mxCell id="1" parent="0"/>
                <mxCell id="EI9PZIk5gsRJ5IF5YT5m-28" value="" style="rounded=0;whiteSpace=wrap;html=1;fillColor=#dae8fc;strokeColor=#6c8ebf;" vertex="1" parent="1">
                    <mxGeometry x="20" y="20" width="600" height="610" as="geometry"/>
                </mxCell>
                <mxCell id="EI9PZIk5gsRJ5IF5YT5m-4" value="" style="edgeStyle=none;html=1;" edge="1" parent="1" source="EI9PZIk5gsRJ5IF5YT5m-1" target="EI9PZIk5gsRJ5IF5YT5m-3">
                    <mxGeometry relative="1" as="geometry"/>
                </mxCell>
                <mxCell id="EI9PZIk5gsRJ5IF5YT5m-7" value="" style="edgeStyle=none;html=1;" edge="1" parent="1" source="EI9PZIk5gsRJ5IF5YT5m-1" target="EI9PZIk5gsRJ5IF5YT5m-3">
                    <mxGeometry relative="1" as="geometry"/>
                </mxCell>
                <mxCell id="EI9PZIk5gsRJ5IF5YT5m-9" value="" style="edgeStyle=none;html=1;" edge="1" parent="1" source="EI9PZIk5gsRJ5IF5YT5m-1" target="EI9PZIk5gsRJ5IF5YT5m-2">
                    <mxGeometry relative="1" as="geometry"/>
                </mxCell>
                <mxCell id="EI9PZIk5gsRJ5IF5YT5m-10" value="" style="edgeStyle=none;html=1;" edge="1" parent="1" source="EI9PZIk5gsRJ5IF5YT5m-1" target="EI9PZIk5gsRJ5IF5YT5m-2">
                    <mxGeometry relative="1" as="geometry"/>
                </mxCell>
                <mxCell id="EI9PZIk5gsRJ5IF5YT5m-12" value="" style="edgeStyle=none;html=1;" edge="1" parent="1" source="EI9PZIk5gsRJ5IF5YT5m-1" target="EI9PZIk5gsRJ5IF5YT5m-11">
                    <mxGeometry relative="1" as="geometry"/>
                </mxCell>
                <mxCell id="EI9PZIk5gsRJ5IF5YT5m-1" value="Apps" style="rounded=0;whiteSpace=wrap;html=1;" vertex="1" parent="1">
                    <mxGeometry x="260" y="40" width="120" height="60" as="geometry"/>
                </mxCell>
                <mxCell id="EI9PZIk5gsRJ5IF5YT5m-2" value="Migration" style="rounded=0;whiteSpace=wrap;html=1;" vertex="1" parent="1">
                    <mxGeometry x="425" y="180" width="120" height="60" as="geometry"/>
                </mxCell>
                <mxCell id="EI9PZIk5gsRJ5IF5YT5m-14" value="" style="edgeStyle=none;html=1;" edge="1" parent="1" source="EI9PZIk5gsRJ5IF5YT5m-3" target="EI9PZIk5gsRJ5IF5YT5m-13">
                    <mxGeometry relative="1" as="geometry"/>
                </mxCell>
                <mxCell id="EI9PZIk5gsRJ5IF5YT5m-3" value="Api" style="rounded=0;whiteSpace=wrap;html=1;" vertex="1" parent="1">
                    <mxGeometry x="90" y="180" width="120" height="60" as="geometry"/>
                </mxCell>
                <mxCell id="EI9PZIk5gsRJ5IF5YT5m-20" value="" style="edgeStyle=none;html=1;" edge="1" parent="1" source="EI9PZIk5gsRJ5IF5YT5m-11" target="EI9PZIk5gsRJ5IF5YT5m-19">
                    <mxGeometry relative="1" as="geometry"/>
                </mxCell>
                <mxCell id="EI9PZIk5gsRJ5IF5YT5m-11" value="Worker" style="rounded=0;whiteSpace=wrap;html=1;" vertex="1" parent="1">
                    <mxGeometry x="260" y="180" width="120" height="60" as="geometry"/>
                </mxCell>
                <mxCell id="EI9PZIk5gsRJ5IF5YT5m-16" value="" style="edgeStyle=none;html=1;" edge="1" parent="1" source="EI9PZIk5gsRJ5IF5YT5m-13" target="EI9PZIk5gsRJ5IF5YT5m-15">
                    <mxGeometry relative="1" as="geometry"/>
                </mxCell>
                <mxCell id="EI9PZIk5gsRJ5IF5YT5m-13" value="Resource Modules" style="rounded=0;whiteSpace=wrap;html=1;" vertex="1" parent="1">
                    <mxGeometry x="90" y="310" width="120" height="60" as="geometry"/>
                </mxCell>
                <mxCell id="EI9PZIk5gsRJ5IF5YT5m-18" value="" style="edgeStyle=none;html=1;" edge="1" parent="1" source="EI9PZIk5gsRJ5IF5YT5m-15" target="EI9PZIk5gsRJ5IF5YT5m-17">
                    <mxGeometry relative="1" as="geometry"/>
                </mxCell>
                <mxCell id="EI9PZIk5gsRJ5IF5YT5m-15" value="Resolver" style="rounded=0;whiteSpace=wrap;html=1;" vertex="1" parent="1">
                    <mxGeometry x="90" y="430" width="120" height="60" as="geometry"/>
                </mxCell>
                <mxCell id="EI9PZIk5gsRJ5IF5YT5m-17" value="Usecases" style="rounded=0;whiteSpace=wrap;html=1;" vertex="1" parent="1">
                    <mxGeometry x="90" y="520" width="120" height="60" as="geometry"/>
                </mxCell>
                <mxCell id="EI9PZIk5gsRJ5IF5YT5m-22" value="" style="edgeStyle=none;html=1;" edge="1" parent="1" source="EI9PZIk5gsRJ5IF5YT5m-19" target="EI9PZIk5gsRJ5IF5YT5m-21">
                    <mxGeometry relative="1" as="geometry"/>
                </mxCell>
                <mxCell id="EI9PZIk5gsRJ5IF5YT5m-19" value="Queue Modules" style="rounded=0;whiteSpace=wrap;html=1;" vertex="1" parent="1">
                    <mxGeometry x="260" y="310" width="120" height="60" as="geometry"/>
                </mxCell>
                <mxCell id="EI9PZIk5gsRJ5IF5YT5m-24" value="" style="edgeStyle=none;html=1;" edge="1" parent="1" source="EI9PZIk5gsRJ5IF5YT5m-21" target="EI9PZIk5gsRJ5IF5YT5m-23">
                    <mxGeometry relative="1" as="geometry"/>
                </mxCell>
                <mxCell id="EI9PZIk5gsRJ5IF5YT5m-21" value="Consumer Handler" style="rounded=0;whiteSpace=wrap;html=1;" vertex="1" parent="1">
                    <mxGeometry x="260" y="430" width="120" height="60" as="geometry"/>
                </mxCell>
                <mxCell id="EI9PZIk5gsRJ5IF5YT5m-23" value="Usecases" style="rounded=0;whiteSpace=wrap;html=1;" vertex="1" parent="1">
                    <mxGeometry x="260" y="520" width="120" height="60" as="geometry"/>
                </mxCell>
                <mxCell id="EI9PZIk5gsRJ5IF5YT5m-29" value="" style="rounded=0;whiteSpace=wrap;html=1;fillColor=#f8cecc;strokeColor=#b85450;" vertex="1" parent="1">
                    <mxGeometry x="20" y="660" width="600" height="650" as="geometry"/>
                </mxCell>
                <mxCell id="EI9PZIk5gsRJ5IF5YT5m-32" value="" style="edgeStyle=none;html=1;" edge="1" parent="1" source="EI9PZIk5gsRJ5IF5YT5m-30" target="EI9PZIk5gsRJ5IF5YT5m-31">
                    <mxGeometry relative="1" as="geometry"/>
                </mxCell>
                <mxCell id="EI9PZIk5gsRJ5IF5YT5m-34" value="" style="edgeStyle=none;html=1;" edge="1" parent="1" source="EI9PZIk5gsRJ5IF5YT5m-30" target="EI9PZIk5gsRJ5IF5YT5m-33">
                    <mxGeometry relative="1" as="geometry"/>
                </mxCell>
                <mxCell id="EI9PZIk5gsRJ5IF5YT5m-36" value="" style="edgeStyle=none;html=1;" edge="1" parent="1" source="EI9PZIk5gsRJ5IF5YT5m-30" target="EI9PZIk5gsRJ5IF5YT5m-35">
                    <mxGeometry relative="1" as="geometry"/>
                </mxCell>
                <mxCell id="EI9PZIk5gsRJ5IF5YT5m-30" value="Libs" style="rounded=0;whiteSpace=wrap;html=1;" vertex="1" parent="1">
                    <mxGeometry x="260" y="690" width="120" height="60" as="geometry"/>
                </mxCell>
                <mxCell id="EI9PZIk5gsRJ5IF5YT5m-38" value="" style="edgeStyle=none;html=1;" edge="1" parent="1" source="EI9PZIk5gsRJ5IF5YT5m-31" target="EI9PZIk5gsRJ5IF5YT5m-37">
                    <mxGeometry relative="1" as="geometry"/>
                </mxCell>
                <mxCell id="EI9PZIk5gsRJ5IF5YT5m-31" value="Dal" style="rounded=0;whiteSpace=wrap;html=1;" vertex="1" parent="1">
                    <mxGeometry x="50" y="780" width="120" height="60" as="geometry"/>
                </mxCell>
                <mxCell id="EI9PZIk5gsRJ5IF5YT5m-33" value="Shared" style="rounded=0;whiteSpace=wrap;html=1;" vertex="1" parent="1">
                    <mxGeometry x="260" y="780" width="120" height="60" as="geometry"/>
                </mxCell>
                <mxCell id="EI9PZIk5gsRJ5IF5YT5m-35" value="App Generic" style="rounded=0;whiteSpace=wrap;html=1;" vertex="1" parent="1">
                    <mxGeometry x="450" y="780" width="120" height="60" as="geometry"/>
                </mxCell>
                <mxCell id="EI9PZIk5gsRJ5IF5YT5m-40" value="" style="edgeStyle=none;html=1;" edge="1" parent="1" source="EI9PZIk5gsRJ5IF5YT5m-37" target="EI9PZIk5gsRJ5IF5YT5m-39">
                    <mxGeometry relative="1" as="geometry"/>
                </mxCell>
                <mxCell id="EI9PZIk5gsRJ5IF5YT5m-41" value="" style="edgeStyle=none;html=1;" edge="1" parent="1" source="EI9PZIk5gsRJ5IF5YT5m-37" target="EI9PZIk5gsRJ5IF5YT5m-39">
                    <mxGeometry relative="1" as="geometry"/>
                </mxCell>
                <mxCell id="EI9PZIk5gsRJ5IF5YT5m-37" value="Repository" style="rounded=0;whiteSpace=wrap;html=1;" vertex="1" parent="1">
                    <mxGeometry x="50" y="870" width="120" height="60" as="geometry"/>
                </mxCell>
                <mxCell id="EI9PZIk5gsRJ5IF5YT5m-43" style="edgeStyle=none;html=1;entryX=0.5;entryY=0;entryDx=0;entryDy=0;" edge="1" parent="1" source="EI9PZIk5gsRJ5IF5YT5m-39" target="EI9PZIk5gsRJ5IF5YT5m-42">
                    <mxGeometry relative="1" as="geometry"/>
                </mxCell>
                <mxCell id="EI9PZIk5gsRJ5IF5YT5m-39" value="Entity" style="rounded=0;whiteSpace=wrap;html=1;" vertex="1" parent="1">
                    <mxGeometry x="50" y="960" width="120" height="60" as="geometry"/>
                </mxCell>
                <mxCell id="EI9PZIk5gsRJ5IF5YT5m-45" value="" style="edgeStyle=none;html=1;" edge="1" parent="1" source="EI9PZIk5gsRJ5IF5YT5m-42" target="EI9PZIk5gsRJ5IF5YT5m-44">
                    <mxGeometry relative="1" as="geometry"/>
                </mxCell>
                <mxCell id="EI9PZIk5gsRJ5IF5YT5m-42" value="Schema" style="rounded=0;whiteSpace=wrap;html=1;" vertex="1" parent="1">
                    <mxGeometry x="50" y="1050" width="120" height="60" as="geometry"/>
                </mxCell>
                <mxCell id="EI9PZIk5gsRJ5IF5YT5m-44" value="Model" style="rounded=0;whiteSpace=wrap;html=1;" vertex="1" parent="1">
                    <mxGeometry x="50" y="1130" width="120" height="60" as="geometry"/>
                </mxCell>
            </root>
        </mxGraphModel>
    </diagram>
</mxfile>